<svg id="Capa_1" data-name="Capa 1" xmlns="http://www.w3.org/2000/svg" viewBox="0 0 139.32 81.73"><defs><style>.cls-1,.cls-2,.cls-3{fill:#fff;}.cls-1,.cls-2{fill-rule:evenodd;}.cls-2{stroke:#fff;stroke-linecap:round;stroke-linejoin:round;stroke-width:2px;}</style></defs><title>logo_Tservices_blanco</title><path class="cls-1" d="M82.35,35.77a6.43,6.43,0,0,1,.75-1.45L82.41,33l1.92-1.61,1.2.91a5.91,5.91,0,0,1,1.56-.49l.46-1.44,2.49.21.21,1.5a6.08,6.08,0,0,1,1.45.76l1.34-.7L94.65,34l-.91,1.2a6.3,6.3,0,0,1,.49,1.56l1.44.46-.22,2.49L94,40a6.46,6.46,0,0,1-.76,1.45l.7,1.34L92,44.36l-1.2-.91a6.44,6.44,0,0,1-1.56.49l-.46,1.44-2.49-.21-.21-1.5a5.89,5.89,0,0,1-1.45-.76l-1.34.7-1.61-1.92.91-1.2a5.91,5.91,0,0,1-.49-1.56l-1.44-.46L80.85,36l1.5-.21Zm3.14,1.75a2.68,2.68,0,1,0,2.9-2.44A2.68,2.68,0,0,0,85.49,37.52Z"/><path class="cls-1" d="M101.64,29.53a16.68,16.68,0,0,1,3.22-3l-.51-4,6.3-2.31,2.2,3.41a16.53,16.53,0,0,1,4.38.19l2.48-3.21,6.08,2.83-.85,4a16.12,16.12,0,0,1,3,3.22l4-.52,2.3,6.31-3.41,2.2a16.47,16.47,0,0,1-.18,4.37l3.21,2.48L131,51.58l-4-.86a16.68,16.68,0,0,1-3.22,3l.51,4L118,60l-2.2-3.41a16.44,16.44,0,0,1-4.37-.19L109,59.62l-6.08-2.83.85-4a16.4,16.4,0,0,1-2.95-3.23l-4,.52-2.3-6.31,3.41-2.2a16.47,16.47,0,0,1,.18-4.37l-3.2-2.48,2.83-6.09,4,.86Zm6.3,7.28a7.2,7.2,0,1,0,9.57-3.49A7.21,7.21,0,0,0,107.94,36.81Z"/><path class="cls-1" d="M71.64,13.08A11,11,0,0,1,73,10.49L71.75,8.08l3.43-2.89,2.16,1.64A11,11,0,0,1,80.12,6l.82-2.58,4.47.39.37,2.68a10.63,10.63,0,0,1,2.59,1.35l2.41-1.25L93.66,10,92,12.13a11.06,11.06,0,0,1,.88,2.79l2.58.82-.39,4.47-2.68.37a11,11,0,0,1-1.35,2.59l1.24,2.41-3.43,2.88-2.16-1.64a10.62,10.62,0,0,1-2.78.89l-.82,2.58-4.47-.39-.37-2.68a11,11,0,0,1-2.59-1.35l-2.41,1.24L70.4,23.68,72,21.52a11,11,0,0,1-.88-2.78l-2.58-.83L69,13.45l2.68-.37Zm5.62,3.13a4.81,4.81,0,1,0,5.2-4.38A4.81,4.81,0,0,0,77.26,16.21Z"/><path class="cls-1" d="M51.4,36.7a13.29,13.29,0,0,1,1.67-3.22l-1.54-3,4.27-3.59,2.68,2A13.64,13.64,0,0,1,62,27.83l1-3.21,5.56.48L69,28.44a13.33,13.33,0,0,1,3.22,1.68l3-1.55,3.59,4.27-2,2.69A13.69,13.69,0,0,1,77.86,39l3.21,1-.48,5.55L77.25,46a13.58,13.58,0,0,1-1.68,3.23l1.55,3-4.27,3.59-2.69-2A13.55,13.55,0,0,1,66.7,54.9l-1,3.21-5.55-.48-.46-3.33a14,14,0,0,1-3.23-1.68l-3,1.54L49.85,49.9l2-2.69a13.62,13.62,0,0,1-1.09-3.47l-3.21-1,.48-5.56,3.34-.46Zm7,3.9a6,6,0,1,0,6.48-5.45A6,6,0,0,0,58.38,40.6Z"/><path class="cls-1" d="M99,3.75a8,8,0,0,1,1.84-1.16l.1-2L104.17,0,105,1.86a7.85,7.85,0,0,1,2.12.48L108.57,1,111.3,2.9l-.77,1.87a7.75,7.75,0,0,1,1.17,1.84l2,.1.57,3.29-1.86.77A8.39,8.39,0,0,1,112,12.9l1.35,1.49-1.92,2.73-1.86-.77a8.17,8.17,0,0,1-1.84,1.17l-.1,2-3.29.58-.78-1.87a8.22,8.22,0,0,1-2.12-.47l-1.5,1.35L97.16,17.2l.77-1.86a8.49,8.49,0,0,1-1.16-1.84l-2-.1-.57-3.29L96,9.33a8.32,8.32,0,0,1,.47-2.12l-1.35-1.5L97.08,3,99,3.75Zm2.44,4.12a3.58,3.58,0,1,0,5-.87A3.58,3.58,0,0,0,101.39,7.87Z"/><path class="cls-2" d="M16.21,75.59s-4.63-7.27-9.92-15.21S3.65,47.82,3.65,47.82l5.29-8.6L1,34.59,9.6,20.05,39.35,37.24,30.76,51.13l-6.61-4c-.67,1.32-8.6,13.89-8.6,13.89S10.26,67.66,16.21,75.59Z"/><path class="cls-2" d="M42,70.62V62.35H14.88s-3.31,7.28,1.32,13.23c0,0,2,3.31,7.28,3.31H42V70.62"/><path class="cls-3" d="M58.07,70a1.84,1.84,0,0,1,1.52.62,1.86,1.86,0,0,1,.26,1.65l-.75,3.61a2.91,2.91,0,0,1-1,1.65,2.7,2.7,0,0,1-1.76.62H48.2a1.79,1.79,0,0,1-1.51-.62,1.91,1.91,0,0,1-.28-1.65l.4-1.95h4.83l-.5,2.41h3l1-4.53H49.54a1.69,1.69,0,0,1-1.78-2.27l.75-3.61a2.91,2.91,0,0,1,1-1.65,2.7,2.7,0,0,1,1.76-.62h8.15a1.68,1.68,0,0,1,1.79,2.25l-.4,2H56l.5-2.39h-3l-1,4.53Z"/><path class="cls-3" d="M62.46,68.34a2.22,2.22,0,0,1,2.2-1.81h7.73a1.43,1.43,0,0,1,1.19.5,1.58,1.58,0,0,1,.22,1.31l-1.39,6.59H65.54l-.35,1.59h6.86l-.33,1.6H62.65a1.85,1.85,0,0,1-1.53-.62,1.88,1.88,0,0,1-.26-1.65ZM67,68.13l-1.11,5.16h2.41l1.12-5.16Z"/><path class="cls-3" d="M84.82,68.13H80.48l-2.15,10H73.86l2.08-9.78a2.24,2.24,0,0,1,2.2-1.81h7Z"/><path class="cls-3" d="M91.46,78.12H87l-.65-11.59h4.48l.44,8,3.9-8h1.94Z"/><path class="cls-3" d="M100.28,78.12H95.8l2.46-11.59h4.47ZM103,65.23H98.53l.34-1.6h4.47Z"/><path class="cls-3" d="M104.12,68.34a2.25,2.25,0,0,1,2.21-1.81h7l-.34,1.6h-4.34l-1.81,8.39h4.35l-.34,1.6h-6.55a1.83,1.83,0,0,1-1.52-.62,1.88,1.88,0,0,1-.27-1.65Z"/><path class="cls-3" d="M114.43,68.34a2.23,2.23,0,0,1,.79-1.31,2.2,2.2,0,0,1,1.42-.5h7.72a1.42,1.42,0,0,1,1.19.5,1.54,1.54,0,0,1,.22,1.31l-1.38,6.59h-6.87l-.36,1.59H124l-.34,1.6h-9.07a1.83,1.83,0,0,1-1.52-.62,1.88,1.88,0,0,1-.27-1.65Zm4.54-.21-1.12,5.16h2.42l1.11-5.16Z"/><path class="cls-3" d="M136.42,71.51a1.37,1.37,0,0,1,1.18.5,1.53,1.53,0,0,1,.23,1.3l-.53,2.54a2.77,2.77,0,0,1-2.75,2.27h-6.83a1.84,1.84,0,0,1-1.52-.62,1.88,1.88,0,0,1-.26-1.65l.25-1.11h4.47l-.39,1.78h2.41l.74-3.42H128.8a1.82,1.82,0,0,1-1.53-.62,1.88,1.88,0,0,1-.26-1.65l.53-2.49a2.22,2.22,0,0,1,2.2-1.81h7.73a1.4,1.4,0,0,1,1.18.5,1.55,1.55,0,0,1,.23,1.31l-.34,1.57h-4.45l.4-1.78h-2.42l-.73,3.38Z"/></svg>